<mxfile host="app.diagrams.net" modified="2024-01-26T10:54:47.349Z" agent="Mozilla/5.0 (Macintosh; Intel Mac OS X 10_15_7) AppleWebKit/605.1.15 (KHTML, like Gecko) Version/17.2.1 Safari/605.1.15" etag="2C0m0yPbolCZ4e6sOUjM" version="23.0.2" type="device">
  <diagram name="Page-1" id="0PHCMKjpyud3KAjEsfLB">
    <mxGraphModel dx="1010" dy="622" grid="1" gridSize="10" guides="1" tooltips="1" connect="1" arrows="1" fold="1" page="1" pageScale="1" pageWidth="827" pageHeight="1169" math="0" shadow="0">
      <root>
        <mxCell id="0" />
        <mxCell id="1" parent="0" />
        <mxCell id="qExTj2zVySwOXJWGo6M_-68" value="" style="rounded=0;whiteSpace=wrap;html=1;fillColor=#f5f5f5;fontColor=#333333;strokeColor=#666666;gradientColor=none;" vertex="1" parent="1">
          <mxGeometry x="30" y="410" width="750" height="110" as="geometry" />
        </mxCell>
        <mxCell id="qExTj2zVySwOXJWGo6M_-69" value="" style="rounded=0;whiteSpace=wrap;html=1;" vertex="1" parent="1">
          <mxGeometry x="51" y="435" width="120" height="60" as="geometry" />
        </mxCell>
        <mxCell id="qExTj2zVySwOXJWGo6M_-70" value="" style="endArrow=none;html=1;rounded=0;entryX=0.25;entryY=0;entryDx=0;entryDy=0;exitX=0.25;exitY=1;exitDx=0;exitDy=0;" edge="1" source="qExTj2zVySwOXJWGo6M_-69" target="qExTj2zVySwOXJWGo6M_-69" parent="1">
          <mxGeometry width="50" height="50" relative="1" as="geometry">
            <mxPoint x="311" y="465" as="sourcePoint" />
            <mxPoint x="361" y="415" as="targetPoint" />
          </mxGeometry>
        </mxCell>
        <mxCell id="qExTj2zVySwOXJWGo6M_-71" value="" style="endArrow=none;html=1;rounded=0;entryX=0.5;entryY=0;entryDx=0;entryDy=0;exitX=0.5;exitY=1;exitDx=0;exitDy=0;" edge="1" source="qExTj2zVySwOXJWGo6M_-69" target="qExTj2zVySwOXJWGo6M_-69" parent="1">
          <mxGeometry width="50" height="50" relative="1" as="geometry">
            <mxPoint x="91" y="505" as="sourcePoint" />
            <mxPoint x="91" y="445" as="targetPoint" />
            <Array as="points">
              <mxPoint x="111" y="465" />
            </Array>
          </mxGeometry>
        </mxCell>
        <mxCell id="qExTj2zVySwOXJWGo6M_-72" value="" style="endArrow=none;html=1;rounded=0;entryX=0.75;entryY=0;entryDx=0;entryDy=0;exitX=0.75;exitY=1;exitDx=0;exitDy=0;" edge="1" source="qExTj2zVySwOXJWGo6M_-69" target="qExTj2zVySwOXJWGo6M_-69" parent="1">
          <mxGeometry width="50" height="50" relative="1" as="geometry">
            <mxPoint x="311" y="465" as="sourcePoint" />
            <mxPoint x="361" y="415" as="targetPoint" />
          </mxGeometry>
        </mxCell>
        <mxCell id="qExTj2zVySwOXJWGo6M_-73" value="20" style="text;strokeColor=none;fillColor=none;align=left;verticalAlign=middle;spacingLeft=4;spacingRight=4;overflow=hidden;points=[[0,0.5],[1,0.5]];portConstraint=eastwest;rotatable=0;whiteSpace=wrap;html=1;fontSize=17;" vertex="1" parent="1">
          <mxGeometry x="51" y="440" width="30" height="50" as="geometry" />
        </mxCell>
        <mxCell id="qExTj2zVySwOXJWGo6M_-74" value="15" style="text;strokeColor=none;fillColor=none;align=left;verticalAlign=middle;spacingLeft=4;spacingRight=4;overflow=hidden;points=[[0,0.5],[1,0.5]];portConstraint=eastwest;rotatable=0;whiteSpace=wrap;html=1;fontSize=17;" vertex="1" parent="1">
          <mxGeometry x="81" y="440" width="30" height="50" as="geometry" />
        </mxCell>
        <mxCell id="qExTj2zVySwOXJWGo6M_-75" value="&lt;font style=&quot;font-size: 17px;&quot;&gt;16&lt;/font&gt;" style="text;strokeColor=none;fillColor=none;align=left;verticalAlign=middle;spacingLeft=4;spacingRight=4;overflow=hidden;points=[[0,0.5],[1,0.5]];portConstraint=eastwest;rotatable=0;whiteSpace=wrap;html=1;" vertex="1" parent="1">
          <mxGeometry x="111" y="440" width="30" height="50" as="geometry" />
        </mxCell>
        <mxCell id="qExTj2zVySwOXJWGo6M_-76" value="&amp;nbsp;1" style="text;strokeColor=none;fillColor=none;align=left;verticalAlign=middle;spacingLeft=4;spacingRight=4;overflow=hidden;points=[[0,0.5],[1,0.5]];portConstraint=eastwest;rotatable=0;whiteSpace=wrap;html=1;fontSize=17;" vertex="1" parent="1">
          <mxGeometry x="141" y="440" width="30" height="50" as="geometry" />
        </mxCell>
        <mxCell id="qExTj2zVySwOXJWGo6M_-77" value="" style="rounded=0;whiteSpace=wrap;html=1;" vertex="1" parent="1">
          <mxGeometry x="191" y="435" width="120" height="60" as="geometry" />
        </mxCell>
        <mxCell id="qExTj2zVySwOXJWGo6M_-78" value="" style="endArrow=none;html=1;rounded=0;entryX=0.25;entryY=0;entryDx=0;entryDy=0;exitX=0.25;exitY=1;exitDx=0;exitDy=0;" edge="1" source="qExTj2zVySwOXJWGo6M_-77" target="qExTj2zVySwOXJWGo6M_-77" parent="1">
          <mxGeometry width="50" height="50" relative="1" as="geometry">
            <mxPoint x="451" y="465" as="sourcePoint" />
            <mxPoint x="501" y="415" as="targetPoint" />
          </mxGeometry>
        </mxCell>
        <mxCell id="qExTj2zVySwOXJWGo6M_-79" value="" style="endArrow=none;html=1;rounded=0;entryX=0.5;entryY=0;entryDx=0;entryDy=0;exitX=0.5;exitY=1;exitDx=0;exitDy=0;" edge="1" source="qExTj2zVySwOXJWGo6M_-77" target="qExTj2zVySwOXJWGo6M_-77" parent="1">
          <mxGeometry width="50" height="50" relative="1" as="geometry">
            <mxPoint x="231" y="505" as="sourcePoint" />
            <mxPoint x="231" y="445" as="targetPoint" />
            <Array as="points">
              <mxPoint x="251" y="465" />
            </Array>
          </mxGeometry>
        </mxCell>
        <mxCell id="qExTj2zVySwOXJWGo6M_-80" value="" style="endArrow=none;html=1;rounded=0;entryX=0.75;entryY=0;entryDx=0;entryDy=0;exitX=0.75;exitY=1;exitDx=0;exitDy=0;" edge="1" source="qExTj2zVySwOXJWGo6M_-77" target="qExTj2zVySwOXJWGo6M_-77" parent="1">
          <mxGeometry width="50" height="50" relative="1" as="geometry">
            <mxPoint x="451" y="465" as="sourcePoint" />
            <mxPoint x="501" y="415" as="targetPoint" />
          </mxGeometry>
        </mxCell>
        <mxCell id="qExTj2zVySwOXJWGo6M_-81" value="&amp;nbsp;2" style="text;strokeColor=none;fillColor=none;align=left;verticalAlign=middle;spacingLeft=4;spacingRight=4;overflow=hidden;points=[[0,0.5],[1,0.5]];portConstraint=eastwest;rotatable=0;whiteSpace=wrap;html=1;fontSize=17;" vertex="1" parent="1">
          <mxGeometry x="191" y="440" width="30" height="50" as="geometry" />
        </mxCell>
        <mxCell id="qExTj2zVySwOXJWGo6M_-82" value="&amp;nbsp;8" style="text;strokeColor=none;fillColor=none;align=left;verticalAlign=middle;spacingLeft=4;spacingRight=4;overflow=hidden;points=[[0,0.5],[1,0.5]];portConstraint=eastwest;rotatable=0;whiteSpace=wrap;html=1;fontSize=17;" vertex="1" parent="1">
          <mxGeometry x="221" y="440" width="30" height="50" as="geometry" />
        </mxCell>
        <mxCell id="qExTj2zVySwOXJWGo6M_-83" value="&lt;font style=&quot;font-size: 17px;&quot;&gt;14&lt;/font&gt;" style="text;strokeColor=none;fillColor=none;align=left;verticalAlign=middle;spacingLeft=4;spacingRight=4;overflow=hidden;points=[[0,0.5],[1,0.5]];portConstraint=eastwest;rotatable=0;whiteSpace=wrap;html=1;" vertex="1" parent="1">
          <mxGeometry x="251" y="440" width="30" height="50" as="geometry" />
        </mxCell>
        <mxCell id="qExTj2zVySwOXJWGo6M_-84" value="12" style="text;strokeColor=none;fillColor=none;align=left;verticalAlign=middle;spacingLeft=4;spacingRight=4;overflow=hidden;points=[[0,0.5],[1,0.5]];portConstraint=eastwest;rotatable=0;whiteSpace=wrap;html=1;fontSize=17;" vertex="1" parent="1">
          <mxGeometry x="281" y="440" width="30" height="50" as="geometry" />
        </mxCell>
        <mxCell id="qExTj2zVySwOXJWGo6M_-85" value="" style="rounded=0;whiteSpace=wrap;html=1;" vertex="1" parent="1">
          <mxGeometry x="331" y="435" width="120" height="60" as="geometry" />
        </mxCell>
        <mxCell id="qExTj2zVySwOXJWGo6M_-86" value="" style="endArrow=none;html=1;rounded=0;entryX=0.25;entryY=0;entryDx=0;entryDy=0;exitX=0.25;exitY=1;exitDx=0;exitDy=0;" edge="1" source="qExTj2zVySwOXJWGo6M_-85" target="qExTj2zVySwOXJWGo6M_-85" parent="1">
          <mxGeometry width="50" height="50" relative="1" as="geometry">
            <mxPoint x="591" y="465" as="sourcePoint" />
            <mxPoint x="641" y="415" as="targetPoint" />
          </mxGeometry>
        </mxCell>
        <mxCell id="qExTj2zVySwOXJWGo6M_-87" value="" style="endArrow=none;html=1;rounded=0;entryX=0.5;entryY=0;entryDx=0;entryDy=0;exitX=0.5;exitY=1;exitDx=0;exitDy=0;" edge="1" source="qExTj2zVySwOXJWGo6M_-85" target="qExTj2zVySwOXJWGo6M_-85" parent="1">
          <mxGeometry width="50" height="50" relative="1" as="geometry">
            <mxPoint x="371" y="505" as="sourcePoint" />
            <mxPoint x="371" y="445" as="targetPoint" />
            <Array as="points">
              <mxPoint x="391" y="465" />
            </Array>
          </mxGeometry>
        </mxCell>
        <mxCell id="qExTj2zVySwOXJWGo6M_-88" value="" style="endArrow=none;html=1;rounded=0;entryX=0.75;entryY=0;entryDx=0;entryDy=0;exitX=0.75;exitY=1;exitDx=0;exitDy=0;" edge="1" source="qExTj2zVySwOXJWGo6M_-85" target="qExTj2zVySwOXJWGo6M_-85" parent="1">
          <mxGeometry width="50" height="50" relative="1" as="geometry">
            <mxPoint x="591" y="465" as="sourcePoint" />
            <mxPoint x="641" y="415" as="targetPoint" />
          </mxGeometry>
        </mxCell>
        <mxCell id="qExTj2zVySwOXJWGo6M_-89" value="&amp;nbsp;7" style="text;strokeColor=none;fillColor=none;align=left;verticalAlign=middle;spacingLeft=4;spacingRight=4;overflow=hidden;points=[[0,0.5],[1,0.5]];portConstraint=eastwest;rotatable=0;whiteSpace=wrap;html=1;fontSize=17;" vertex="1" parent="1">
          <mxGeometry x="331" y="440" width="30" height="50" as="geometry" />
        </mxCell>
        <mxCell id="qExTj2zVySwOXJWGo6M_-90" value="&amp;nbsp;5" style="text;strokeColor=none;fillColor=none;align=left;verticalAlign=middle;spacingLeft=4;spacingRight=4;overflow=hidden;points=[[0,0.5],[1,0.5]];portConstraint=eastwest;rotatable=0;whiteSpace=wrap;html=1;fontSize=17;" vertex="1" parent="1">
          <mxGeometry x="361" y="440" width="30" height="50" as="geometry" />
        </mxCell>
        <mxCell id="qExTj2zVySwOXJWGo6M_-91" value="&lt;font style=&quot;font-size: 17px;&quot;&gt;13&lt;/font&gt;" style="text;strokeColor=none;fillColor=none;align=left;verticalAlign=middle;spacingLeft=4;spacingRight=4;overflow=hidden;points=[[0,0.5],[1,0.5]];portConstraint=eastwest;rotatable=0;whiteSpace=wrap;html=1;" vertex="1" parent="1">
          <mxGeometry x="391" y="440" width="30" height="50" as="geometry" />
        </mxCell>
        <mxCell id="qExTj2zVySwOXJWGo6M_-92" value="&amp;nbsp;6" style="text;strokeColor=none;fillColor=none;align=left;verticalAlign=middle;spacingLeft=4;spacingRight=4;overflow=hidden;points=[[0,0.5],[1,0.5]];portConstraint=eastwest;rotatable=0;whiteSpace=wrap;html=1;fontSize=17;" vertex="1" parent="1">
          <mxGeometry x="421" y="440" width="30" height="50" as="geometry" />
        </mxCell>
        <mxCell id="qExTj2zVySwOXJWGo6M_-93" value="" style="rounded=0;whiteSpace=wrap;html=1;" vertex="1" parent="1">
          <mxGeometry x="471" y="435" width="120" height="60" as="geometry" />
        </mxCell>
        <mxCell id="qExTj2zVySwOXJWGo6M_-94" value="" style="endArrow=none;html=1;rounded=0;entryX=0.25;entryY=0;entryDx=0;entryDy=0;exitX=0.25;exitY=1;exitDx=0;exitDy=0;" edge="1" source="qExTj2zVySwOXJWGo6M_-93" target="qExTj2zVySwOXJWGo6M_-93" parent="1">
          <mxGeometry width="50" height="50" relative="1" as="geometry">
            <mxPoint x="731" y="465" as="sourcePoint" />
            <mxPoint x="781" y="415" as="targetPoint" />
          </mxGeometry>
        </mxCell>
        <mxCell id="qExTj2zVySwOXJWGo6M_-95" value="" style="endArrow=none;html=1;rounded=0;entryX=0.5;entryY=0;entryDx=0;entryDy=0;exitX=0.5;exitY=1;exitDx=0;exitDy=0;" edge="1" source="qExTj2zVySwOXJWGo6M_-93" target="qExTj2zVySwOXJWGo6M_-93" parent="1">
          <mxGeometry width="50" height="50" relative="1" as="geometry">
            <mxPoint x="511" y="505" as="sourcePoint" />
            <mxPoint x="511" y="445" as="targetPoint" />
            <Array as="points">
              <mxPoint x="531" y="465" />
            </Array>
          </mxGeometry>
        </mxCell>
        <mxCell id="qExTj2zVySwOXJWGo6M_-96" value="" style="endArrow=none;html=1;rounded=0;entryX=0.75;entryY=0;entryDx=0;entryDy=0;exitX=0.75;exitY=1;exitDx=0;exitDy=0;" edge="1" source="qExTj2zVySwOXJWGo6M_-93" target="qExTj2zVySwOXJWGo6M_-93" parent="1">
          <mxGeometry width="50" height="50" relative="1" as="geometry">
            <mxPoint x="731" y="465" as="sourcePoint" />
            <mxPoint x="781" y="415" as="targetPoint" />
          </mxGeometry>
        </mxCell>
        <mxCell id="qExTj2zVySwOXJWGo6M_-97" value="&amp;nbsp;3" style="text;strokeColor=none;fillColor=none;align=left;verticalAlign=middle;spacingLeft=4;spacingRight=4;overflow=hidden;points=[[0,0.5],[1,0.5]];portConstraint=eastwest;rotatable=0;whiteSpace=wrap;html=1;fontSize=17;" vertex="1" parent="1">
          <mxGeometry x="471" y="440" width="30" height="50" as="geometry" />
        </mxCell>
        <mxCell id="qExTj2zVySwOXJWGo6M_-98" value="&amp;nbsp;9" style="text;strokeColor=none;fillColor=none;align=left;verticalAlign=middle;spacingLeft=4;spacingRight=4;overflow=hidden;points=[[0,0.5],[1,0.5]];portConstraint=eastwest;rotatable=0;whiteSpace=wrap;html=1;fontSize=17;" vertex="1" parent="1">
          <mxGeometry x="501" y="440" width="30" height="50" as="geometry" />
        </mxCell>
        <mxCell id="qExTj2zVySwOXJWGo6M_-99" value="&lt;font style=&quot;font-size: 17px;&quot;&gt;&amp;nbsp;4&lt;/font&gt;" style="text;strokeColor=none;fillColor=none;align=left;verticalAlign=middle;spacingLeft=4;spacingRight=4;overflow=hidden;points=[[0,0.5],[1,0.5]];portConstraint=eastwest;rotatable=0;whiteSpace=wrap;html=1;" vertex="1" parent="1">
          <mxGeometry x="531" y="440" width="30" height="50" as="geometry" />
        </mxCell>
        <mxCell id="qExTj2zVySwOXJWGo6M_-100" value="&amp;nbsp;9" style="text;strokeColor=none;fillColor=none;align=left;verticalAlign=middle;spacingLeft=4;spacingRight=4;overflow=hidden;points=[[0,0.5],[1,0.5]];portConstraint=eastwest;rotatable=0;whiteSpace=wrap;html=1;fontSize=17;" vertex="1" parent="1">
          <mxGeometry x="561" y="440" width="30" height="50" as="geometry" />
        </mxCell>
        <mxCell id="qExTj2zVySwOXJWGo6M_-101" value="" style="rounded=0;whiteSpace=wrap;html=1;" vertex="1" parent="1">
          <mxGeometry x="621" y="435" width="120" height="60" as="geometry" />
        </mxCell>
        <mxCell id="qExTj2zVySwOXJWGo6M_-102" value="" style="endArrow=none;html=1;rounded=0;entryX=0.25;entryY=0;entryDx=0;entryDy=0;exitX=0.25;exitY=1;exitDx=0;exitDy=0;" edge="1" source="qExTj2zVySwOXJWGo6M_-101" target="qExTj2zVySwOXJWGo6M_-101" parent="1">
          <mxGeometry width="50" height="50" relative="1" as="geometry">
            <mxPoint x="881" y="465" as="sourcePoint" />
            <mxPoint x="931" y="415" as="targetPoint" />
          </mxGeometry>
        </mxCell>
        <mxCell id="qExTj2zVySwOXJWGo6M_-103" value="" style="endArrow=none;html=1;rounded=0;entryX=0.5;entryY=0;entryDx=0;entryDy=0;exitX=0.5;exitY=1;exitDx=0;exitDy=0;" edge="1" source="qExTj2zVySwOXJWGo6M_-101" target="qExTj2zVySwOXJWGo6M_-101" parent="1">
          <mxGeometry width="50" height="50" relative="1" as="geometry">
            <mxPoint x="661" y="505" as="sourcePoint" />
            <mxPoint x="661" y="445" as="targetPoint" />
            <Array as="points">
              <mxPoint x="681" y="465" />
            </Array>
          </mxGeometry>
        </mxCell>
        <mxCell id="qExTj2zVySwOXJWGo6M_-104" value="" style="endArrow=none;html=1;rounded=0;entryX=0.75;entryY=0;entryDx=0;entryDy=0;exitX=0.75;exitY=1;exitDx=0;exitDy=0;" edge="1" source="qExTj2zVySwOXJWGo6M_-101" target="qExTj2zVySwOXJWGo6M_-101" parent="1">
          <mxGeometry width="50" height="50" relative="1" as="geometry">
            <mxPoint x="881" y="465" as="sourcePoint" />
            <mxPoint x="931" y="415" as="targetPoint" />
          </mxGeometry>
        </mxCell>
        <mxCell id="qExTj2zVySwOXJWGo6M_-105" value="10" style="text;strokeColor=none;fillColor=none;align=left;verticalAlign=middle;spacingLeft=4;spacingRight=4;overflow=hidden;points=[[0,0.5],[1,0.5]];portConstraint=eastwest;rotatable=0;whiteSpace=wrap;html=1;fontSize=17;" vertex="1" parent="1">
          <mxGeometry x="621" y="440" width="30" height="50" as="geometry" />
        </mxCell>
        <mxCell id="qExTj2zVySwOXJWGo6M_-106" value="11" style="text;strokeColor=none;fillColor=none;align=left;verticalAlign=middle;spacingLeft=4;spacingRight=4;overflow=hidden;points=[[0,0.5],[1,0.5]];portConstraint=eastwest;rotatable=0;whiteSpace=wrap;html=1;fontSize=17;" vertex="1" parent="1">
          <mxGeometry x="651" y="440" width="30" height="50" as="geometry" />
        </mxCell>
        <mxCell id="qExTj2zVySwOXJWGo6M_-107" value="&lt;font style=&quot;font-size: 17px;&quot;&gt;17&lt;/font&gt;" style="text;strokeColor=none;fillColor=none;align=left;verticalAlign=middle;spacingLeft=4;spacingRight=4;overflow=hidden;points=[[0,0.5],[1,0.5]];portConstraint=eastwest;rotatable=0;whiteSpace=wrap;html=1;" vertex="1" parent="1">
          <mxGeometry x="681" y="440" width="30" height="50" as="geometry" />
        </mxCell>
        <mxCell id="qExTj2zVySwOXJWGo6M_-108" value="18" style="text;strokeColor=none;fillColor=none;align=left;verticalAlign=middle;spacingLeft=4;spacingRight=4;overflow=hidden;points=[[0,0.5],[1,0.5]];portConstraint=eastwest;rotatable=0;whiteSpace=wrap;html=1;fontSize=17;" vertex="1" parent="1">
          <mxGeometry x="711" y="440" width="30" height="50" as="geometry" />
        </mxCell>
        <mxCell id="qExTj2zVySwOXJWGo6M_-109" value="" style="rounded=0;whiteSpace=wrap;html=1;strokeColor=default;align=center;verticalAlign=middle;fontFamily=Helvetica;fontSize=12;fontColor=default;fillColor=default;" vertex="1" parent="1">
          <mxGeometry x="110" y="250" width="590" height="80" as="geometry" />
        </mxCell>
        <mxCell id="qExTj2zVySwOXJWGo6M_-110" value="" style="endArrow=classic;html=1;rounded=0;fontFamily=Helvetica;fontSize=26;fontColor=default;strokeWidth=2;" edge="1" parent="1">
          <mxGeometry width="50" height="50" relative="1" as="geometry">
            <mxPoint x="30" y="380" as="sourcePoint" />
            <mxPoint x="780" y="380" as="targetPoint" />
          </mxGeometry>
        </mxCell>
        <mxCell id="qExTj2zVySwOXJWGo6M_-113" value="" style="endArrow=none;html=1;rounded=0;fontFamily=Helvetica;fontSize=12;fontColor=default;entryX=0.25;entryY=0;entryDx=0;entryDy=0;" edge="1" parent="1" target="qExTj2zVySwOXJWGo6M_-109">
          <mxGeometry width="50" height="50" relative="1" as="geometry">
            <mxPoint x="258" y="330" as="sourcePoint" />
            <mxPoint x="430" y="380" as="targetPoint" />
          </mxGeometry>
        </mxCell>
        <mxCell id="qExTj2zVySwOXJWGo6M_-114" value="" style="rounded=0;whiteSpace=wrap;html=1;" vertex="1" parent="1">
          <mxGeometry x="120" y="260" width="120" height="60" as="geometry" />
        </mxCell>
        <mxCell id="qExTj2zVySwOXJWGo6M_-115" value="" style="endArrow=none;html=1;rounded=0;entryX=0.25;entryY=0;entryDx=0;entryDy=0;exitX=0.25;exitY=1;exitDx=0;exitDy=0;" edge="1" source="qExTj2zVySwOXJWGo6M_-114" target="qExTj2zVySwOXJWGo6M_-114" parent="1">
          <mxGeometry width="50" height="50" relative="1" as="geometry">
            <mxPoint x="380" y="290" as="sourcePoint" />
            <mxPoint x="430" y="240" as="targetPoint" />
          </mxGeometry>
        </mxCell>
        <mxCell id="qExTj2zVySwOXJWGo6M_-116" value="" style="endArrow=none;html=1;rounded=0;entryX=0.5;entryY=0;entryDx=0;entryDy=0;exitX=0.5;exitY=1;exitDx=0;exitDy=0;" edge="1" source="qExTj2zVySwOXJWGo6M_-114" target="qExTj2zVySwOXJWGo6M_-114" parent="1">
          <mxGeometry width="50" height="50" relative="1" as="geometry">
            <mxPoint x="160" y="330" as="sourcePoint" />
            <mxPoint x="160" y="270" as="targetPoint" />
            <Array as="points">
              <mxPoint x="180" y="290" />
            </Array>
          </mxGeometry>
        </mxCell>
        <mxCell id="qExTj2zVySwOXJWGo6M_-117" value="" style="endArrow=none;html=1;rounded=0;entryX=0.75;entryY=0;entryDx=0;entryDy=0;exitX=0.75;exitY=1;exitDx=0;exitDy=0;" edge="1" source="qExTj2zVySwOXJWGo6M_-114" target="qExTj2zVySwOXJWGo6M_-114" parent="1">
          <mxGeometry width="50" height="50" relative="1" as="geometry">
            <mxPoint x="380" y="290" as="sourcePoint" />
            <mxPoint x="430" y="240" as="targetPoint" />
          </mxGeometry>
        </mxCell>
        <mxCell id="qExTj2zVySwOXJWGo6M_-118" value="20" style="text;strokeColor=none;fillColor=none;align=left;verticalAlign=middle;spacingLeft=4;spacingRight=4;overflow=hidden;points=[[0,0.5],[1,0.5]];portConstraint=eastwest;rotatable=0;whiteSpace=wrap;html=1;fontSize=17;" vertex="1" parent="1">
          <mxGeometry x="120" y="265" width="30" height="50" as="geometry" />
        </mxCell>
        <mxCell id="qExTj2zVySwOXJWGo6M_-119" value="15" style="text;strokeColor=none;fillColor=none;align=left;verticalAlign=middle;spacingLeft=4;spacingRight=4;overflow=hidden;points=[[0,0.5],[1,0.5]];portConstraint=eastwest;rotatable=0;whiteSpace=wrap;html=1;fontSize=17;" vertex="1" parent="1">
          <mxGeometry x="150" y="265" width="30" height="50" as="geometry" />
        </mxCell>
        <mxCell id="qExTj2zVySwOXJWGo6M_-120" value="&lt;font style=&quot;font-size: 17px;&quot;&gt;16&lt;/font&gt;" style="text;strokeColor=none;fillColor=none;align=left;verticalAlign=middle;spacingLeft=4;spacingRight=4;overflow=hidden;points=[[0,0.5],[1,0.5]];portConstraint=eastwest;rotatable=0;whiteSpace=wrap;html=1;" vertex="1" parent="1">
          <mxGeometry x="180" y="265" width="30" height="50" as="geometry" />
        </mxCell>
        <mxCell id="qExTj2zVySwOXJWGo6M_-121" value="&amp;nbsp;1" style="text;strokeColor=none;fillColor=none;align=left;verticalAlign=middle;spacingLeft=4;spacingRight=4;overflow=hidden;points=[[0,0.5],[1,0.5]];portConstraint=eastwest;rotatable=0;whiteSpace=wrap;html=1;fontSize=17;" vertex="1" parent="1">
          <mxGeometry x="210" y="265" width="30" height="50" as="geometry" />
        </mxCell>
        <mxCell id="qExTj2zVySwOXJWGo6M_-122" value="" style="rounded=0;whiteSpace=wrap;html=1;" vertex="1" parent="1">
          <mxGeometry x="271" y="260" width="120" height="60" as="geometry" />
        </mxCell>
        <mxCell id="qExTj2zVySwOXJWGo6M_-123" value="" style="endArrow=none;html=1;rounded=0;entryX=0.25;entryY=0;entryDx=0;entryDy=0;exitX=0.25;exitY=1;exitDx=0;exitDy=0;" edge="1" source="qExTj2zVySwOXJWGo6M_-122" target="qExTj2zVySwOXJWGo6M_-122" parent="1">
          <mxGeometry width="50" height="50" relative="1" as="geometry">
            <mxPoint x="531" y="290" as="sourcePoint" />
            <mxPoint x="581" y="240" as="targetPoint" />
          </mxGeometry>
        </mxCell>
        <mxCell id="qExTj2zVySwOXJWGo6M_-124" value="" style="endArrow=none;html=1;rounded=0;entryX=0.5;entryY=0;entryDx=0;entryDy=0;exitX=0.5;exitY=1;exitDx=0;exitDy=0;" edge="1" source="qExTj2zVySwOXJWGo6M_-122" target="qExTj2zVySwOXJWGo6M_-122" parent="1">
          <mxGeometry width="50" height="50" relative="1" as="geometry">
            <mxPoint x="311" y="330" as="sourcePoint" />
            <mxPoint x="311" y="270" as="targetPoint" />
            <Array as="points">
              <mxPoint x="331" y="290" />
            </Array>
          </mxGeometry>
        </mxCell>
        <mxCell id="qExTj2zVySwOXJWGo6M_-125" value="" style="endArrow=none;html=1;rounded=0;entryX=0.75;entryY=0;entryDx=0;entryDy=0;exitX=0.75;exitY=1;exitDx=0;exitDy=0;" edge="1" source="qExTj2zVySwOXJWGo6M_-122" target="qExTj2zVySwOXJWGo6M_-122" parent="1">
          <mxGeometry width="50" height="50" relative="1" as="geometry">
            <mxPoint x="531" y="290" as="sourcePoint" />
            <mxPoint x="581" y="240" as="targetPoint" />
          </mxGeometry>
        </mxCell>
        <mxCell id="qExTj2zVySwOXJWGo6M_-126" value="...." style="text;strokeColor=none;fillColor=none;align=left;verticalAlign=middle;spacingLeft=4;spacingRight=4;overflow=hidden;points=[[0,0.5],[1,0.5]];portConstraint=eastwest;rotatable=0;whiteSpace=wrap;html=1;fontSize=17;" vertex="1" parent="1">
          <mxGeometry x="271" y="265" width="30" height="50" as="geometry" />
        </mxCell>
        <mxCell id="qExTj2zVySwOXJWGo6M_-127" value="...." style="text;strokeColor=none;fillColor=none;align=left;verticalAlign=middle;spacingLeft=4;spacingRight=4;overflow=hidden;points=[[0,0.5],[1,0.5]];portConstraint=eastwest;rotatable=0;whiteSpace=wrap;html=1;fontSize=17;" vertex="1" parent="1">
          <mxGeometry x="301" y="265" width="30" height="50" as="geometry" />
        </mxCell>
        <mxCell id="qExTj2zVySwOXJWGo6M_-128" value="&lt;font style=&quot;font-size: 17px;&quot;&gt;....&lt;/font&gt;" style="text;strokeColor=none;fillColor=none;align=left;verticalAlign=middle;spacingLeft=4;spacingRight=4;overflow=hidden;points=[[0,0.5],[1,0.5]];portConstraint=eastwest;rotatable=0;whiteSpace=wrap;html=1;" vertex="1" parent="1">
          <mxGeometry x="331" y="265" width="30" height="50" as="geometry" />
        </mxCell>
        <mxCell id="qExTj2zVySwOXJWGo6M_-129" value="...." style="text;strokeColor=none;fillColor=none;align=left;verticalAlign=middle;spacingLeft=4;spacingRight=4;overflow=hidden;points=[[0,0.5],[1,0.5]];portConstraint=eastwest;rotatable=0;whiteSpace=wrap;html=1;fontSize=17;" vertex="1" parent="1">
          <mxGeometry x="361" y="265" width="30" height="50" as="geometry" />
        </mxCell>
        <mxCell id="qExTj2zVySwOXJWGo6M_-138" value="" style="rounded=0;whiteSpace=wrap;html=1;" vertex="1" parent="1">
          <mxGeometry x="410" y="260" width="120" height="60" as="geometry" />
        </mxCell>
        <mxCell id="qExTj2zVySwOXJWGo6M_-139" value="" style="endArrow=none;html=1;rounded=0;entryX=0.25;entryY=0;entryDx=0;entryDy=0;exitX=0.25;exitY=1;exitDx=0;exitDy=0;" edge="1" source="qExTj2zVySwOXJWGo6M_-138" target="qExTj2zVySwOXJWGo6M_-138" parent="1">
          <mxGeometry width="50" height="50" relative="1" as="geometry">
            <mxPoint x="670" y="290" as="sourcePoint" />
            <mxPoint x="720" y="240" as="targetPoint" />
          </mxGeometry>
        </mxCell>
        <mxCell id="qExTj2zVySwOXJWGo6M_-140" value="" style="endArrow=none;html=1;rounded=0;entryX=0.5;entryY=0;entryDx=0;entryDy=0;exitX=0.5;exitY=1;exitDx=0;exitDy=0;" edge="1" source="qExTj2zVySwOXJWGo6M_-138" target="qExTj2zVySwOXJWGo6M_-138" parent="1">
          <mxGeometry width="50" height="50" relative="1" as="geometry">
            <mxPoint x="450" y="330" as="sourcePoint" />
            <mxPoint x="450" y="270" as="targetPoint" />
            <Array as="points">
              <mxPoint x="470" y="290" />
            </Array>
          </mxGeometry>
        </mxCell>
        <mxCell id="qExTj2zVySwOXJWGo6M_-141" value="" style="endArrow=none;html=1;rounded=0;entryX=0.75;entryY=0;entryDx=0;entryDy=0;exitX=0.75;exitY=1;exitDx=0;exitDy=0;" edge="1" source="qExTj2zVySwOXJWGo6M_-138" target="qExTj2zVySwOXJWGo6M_-138" parent="1">
          <mxGeometry width="50" height="50" relative="1" as="geometry">
            <mxPoint x="670" y="290" as="sourcePoint" />
            <mxPoint x="720" y="240" as="targetPoint" />
          </mxGeometry>
        </mxCell>
        <mxCell id="qExTj2zVySwOXJWGo6M_-142" value="...." style="text;strokeColor=none;fillColor=none;align=left;verticalAlign=middle;spacingLeft=4;spacingRight=4;overflow=hidden;points=[[0,0.5],[1,0.5]];portConstraint=eastwest;rotatable=0;whiteSpace=wrap;html=1;fontSize=17;" vertex="1" parent="1">
          <mxGeometry x="410" y="265" width="30" height="50" as="geometry" />
        </mxCell>
        <mxCell id="qExTj2zVySwOXJWGo6M_-143" value="...." style="text;strokeColor=none;fillColor=none;align=left;verticalAlign=middle;spacingLeft=4;spacingRight=4;overflow=hidden;points=[[0,0.5],[1,0.5]];portConstraint=eastwest;rotatable=0;whiteSpace=wrap;html=1;fontSize=17;" vertex="1" parent="1">
          <mxGeometry x="440" y="265" width="30" height="50" as="geometry" />
        </mxCell>
        <mxCell id="qExTj2zVySwOXJWGo6M_-144" value="&lt;font style=&quot;font-size: 17px;&quot;&gt;....&lt;/font&gt;" style="text;strokeColor=none;fillColor=none;align=left;verticalAlign=middle;spacingLeft=4;spacingRight=4;overflow=hidden;points=[[0,0.5],[1,0.5]];portConstraint=eastwest;rotatable=0;whiteSpace=wrap;html=1;" vertex="1" parent="1">
          <mxGeometry x="470" y="265" width="30" height="50" as="geometry" />
        </mxCell>
        <mxCell id="qExTj2zVySwOXJWGo6M_-145" value="...." style="text;strokeColor=none;fillColor=none;align=left;verticalAlign=middle;spacingLeft=4;spacingRight=4;overflow=hidden;points=[[0,0.5],[1,0.5]];portConstraint=eastwest;rotatable=0;whiteSpace=wrap;html=1;fontSize=17;" vertex="1" parent="1">
          <mxGeometry x="500" y="265" width="30" height="50" as="geometry" />
        </mxCell>
        <mxCell id="qExTj2zVySwOXJWGo6M_-154" value="" style="rounded=0;whiteSpace=wrap;html=1;" vertex="1" parent="1">
          <mxGeometry x="550" y="260" width="120" height="60" as="geometry" />
        </mxCell>
        <mxCell id="qExTj2zVySwOXJWGo6M_-155" value="" style="endArrow=none;html=1;rounded=0;entryX=0.25;entryY=0;entryDx=0;entryDy=0;exitX=0.25;exitY=1;exitDx=0;exitDy=0;" edge="1" source="qExTj2zVySwOXJWGo6M_-154" target="qExTj2zVySwOXJWGo6M_-154" parent="1">
          <mxGeometry width="50" height="50" relative="1" as="geometry">
            <mxPoint x="810" y="290" as="sourcePoint" />
            <mxPoint x="860" y="240" as="targetPoint" />
          </mxGeometry>
        </mxCell>
        <mxCell id="qExTj2zVySwOXJWGo6M_-156" value="" style="endArrow=none;html=1;rounded=0;entryX=0.5;entryY=0;entryDx=0;entryDy=0;exitX=0.5;exitY=1;exitDx=0;exitDy=0;" edge="1" source="qExTj2zVySwOXJWGo6M_-154" target="qExTj2zVySwOXJWGo6M_-154" parent="1">
          <mxGeometry width="50" height="50" relative="1" as="geometry">
            <mxPoint x="590" y="330" as="sourcePoint" />
            <mxPoint x="590" y="270" as="targetPoint" />
            <Array as="points">
              <mxPoint x="610" y="290" />
            </Array>
          </mxGeometry>
        </mxCell>
        <mxCell id="qExTj2zVySwOXJWGo6M_-157" value="" style="endArrow=none;html=1;rounded=0;entryX=0.75;entryY=0;entryDx=0;entryDy=0;exitX=0.75;exitY=1;exitDx=0;exitDy=0;" edge="1" source="qExTj2zVySwOXJWGo6M_-154" target="qExTj2zVySwOXJWGo6M_-154" parent="1">
          <mxGeometry width="50" height="50" relative="1" as="geometry">
            <mxPoint x="810" y="290" as="sourcePoint" />
            <mxPoint x="860" y="240" as="targetPoint" />
          </mxGeometry>
        </mxCell>
        <mxCell id="qExTj2zVySwOXJWGo6M_-158" value="...." style="text;strokeColor=none;fillColor=none;align=left;verticalAlign=middle;spacingLeft=4;spacingRight=4;overflow=hidden;points=[[0,0.5],[1,0.5]];portConstraint=eastwest;rotatable=0;whiteSpace=wrap;html=1;fontSize=17;" vertex="1" parent="1">
          <mxGeometry x="550" y="265" width="30" height="50" as="geometry" />
        </mxCell>
        <mxCell id="qExTj2zVySwOXJWGo6M_-159" value="...." style="text;strokeColor=none;fillColor=none;align=left;verticalAlign=middle;spacingLeft=4;spacingRight=4;overflow=hidden;points=[[0,0.5],[1,0.5]];portConstraint=eastwest;rotatable=0;whiteSpace=wrap;html=1;fontSize=17;" vertex="1" parent="1">
          <mxGeometry x="580" y="265" width="30" height="50" as="geometry" />
        </mxCell>
        <mxCell id="qExTj2zVySwOXJWGo6M_-160" value="&lt;font style=&quot;font-size: 17px;&quot;&gt;....&lt;/font&gt;" style="text;strokeColor=none;fillColor=none;align=left;verticalAlign=middle;spacingLeft=4;spacingRight=4;overflow=hidden;points=[[0,0.5],[1,0.5]];portConstraint=eastwest;rotatable=0;whiteSpace=wrap;html=1;" vertex="1" parent="1">
          <mxGeometry x="610" y="265" width="30" height="50" as="geometry" />
        </mxCell>
        <mxCell id="qExTj2zVySwOXJWGo6M_-161" value="...." style="text;strokeColor=none;fillColor=none;align=left;verticalAlign=middle;spacingLeft=4;spacingRight=4;overflow=hidden;points=[[0,0.5],[1,0.5]];portConstraint=eastwest;rotatable=0;whiteSpace=wrap;html=1;fontSize=17;" vertex="1" parent="1">
          <mxGeometry x="640" y="265" width="30" height="50" as="geometry" />
        </mxCell>
        <mxCell id="qExTj2zVySwOXJWGo6M_-163" value="buffer ring" style="text;html=1;strokeColor=none;fillColor=none;align=center;verticalAlign=middle;whiteSpace=wrap;rounded=0;fontSize=14;fontFamily=Helvetica;fontColor=default;" vertex="1" parent="1">
          <mxGeometry x="150" y="210" width="71" height="30" as="geometry" />
        </mxCell>
        <mxCell id="qExTj2zVySwOXJWGo6M_-164" value="buffer cache" style="text;html=1;strokeColor=none;fillColor=none;align=center;verticalAlign=middle;whiteSpace=wrap;rounded=0;fontSize=14;fontFamily=Helvetica;fontColor=default;" vertex="1" parent="1">
          <mxGeometry x="410" y="210" width="100" height="30" as="geometry" />
        </mxCell>
        <mxCell id="qExTj2zVySwOXJWGo6M_-165" value="" style="endArrow=none;dashed=1;html=1;dashPattern=1 3;strokeWidth=2;rounded=0;fontFamily=Helvetica;fontSize=12;fontColor=default;entryX=0.1;entryY=1.013;entryDx=0;entryDy=0;entryPerimeter=0;exitX=0.5;exitY=0;exitDx=0;exitDy=0;" edge="1" parent="1" source="qExTj2zVySwOXJWGo6M_-69" target="qExTj2zVySwOXJWGo6M_-109">
          <mxGeometry width="50" height="50" relative="1" as="geometry">
            <mxPoint x="130" y="660" as="sourcePoint" />
            <mxPoint x="180" y="610" as="targetPoint" />
          </mxGeometry>
        </mxCell>
        <mxCell id="qExTj2zVySwOXJWGo6M_-166" value="" style="endArrow=none;dashed=1;html=1;dashPattern=1 3;strokeWidth=2;rounded=0;fontFamily=Helvetica;fontSize=12;fontColor=default;entryX=0.11;entryY=0.988;entryDx=0;entryDy=0;entryPerimeter=0;exitX=0.5;exitY=0;exitDx=0;exitDy=0;" edge="1" parent="1" source="qExTj2zVySwOXJWGo6M_-77" target="qExTj2zVySwOXJWGo6M_-109">
          <mxGeometry width="50" height="50" relative="1" as="geometry">
            <mxPoint x="120" y="600" as="sourcePoint" />
            <mxPoint x="170" y="550" as="targetPoint" />
          </mxGeometry>
        </mxCell>
        <mxCell id="qExTj2zVySwOXJWGo6M_-167" value="" style="endArrow=none;dashed=1;html=1;dashPattern=1 3;strokeWidth=2;rounded=0;fontFamily=Helvetica;fontSize=12;fontColor=default;entryX=0.141;entryY=1;entryDx=0;entryDy=0;entryPerimeter=0;exitX=0.5;exitY=0;exitDx=0;exitDy=0;" edge="1" parent="1" source="qExTj2zVySwOXJWGo6M_-85" target="qExTj2zVySwOXJWGo6M_-109">
          <mxGeometry width="50" height="50" relative="1" as="geometry">
            <mxPoint x="390" y="660" as="sourcePoint" />
            <mxPoint x="440" y="610" as="targetPoint" />
          </mxGeometry>
        </mxCell>
        <mxCell id="qExTj2zVySwOXJWGo6M_-168" value="" style="endArrow=none;dashed=1;html=1;dashPattern=1 3;strokeWidth=2;rounded=0;fontFamily=Helvetica;fontSize=12;fontColor=default;entryX=0.192;entryY=1.013;entryDx=0;entryDy=0;entryPerimeter=0;exitX=0.5;exitY=0;exitDx=0;exitDy=0;" edge="1" parent="1" source="qExTj2zVySwOXJWGo6M_-93" target="qExTj2zVySwOXJWGo6M_-109">
          <mxGeometry width="50" height="50" relative="1" as="geometry">
            <mxPoint x="200" y="640" as="sourcePoint" />
            <mxPoint x="250" y="590" as="targetPoint" />
          </mxGeometry>
        </mxCell>
        <mxCell id="qExTj2zVySwOXJWGo6M_-169" value="" style="endArrow=none;dashed=1;html=1;dashPattern=1 3;strokeWidth=2;rounded=0;fontFamily=Helvetica;fontSize=12;fontColor=default;entryX=0.5;entryY=0;entryDx=0;entryDy=0;exitX=0.234;exitY=1.013;exitDx=0;exitDy=0;exitPerimeter=0;" edge="1" parent="1" source="qExTj2zVySwOXJWGo6M_-109" target="qExTj2zVySwOXJWGo6M_-101">
          <mxGeometry width="50" height="50" relative="1" as="geometry">
            <mxPoint x="370" y="520" as="sourcePoint" />
            <mxPoint x="420" y="470" as="targetPoint" />
          </mxGeometry>
        </mxCell>
        <mxCell id="qExTj2zVySwOXJWGo6M_-170" value="Backend 1" style="rounded=0;whiteSpace=wrap;html=1;strokeColor=default;align=center;verticalAlign=middle;fontFamily=Helvetica;fontSize=12;fontColor=default;fillColor=default;" vertex="1" parent="1">
          <mxGeometry x="126" y="110" width="120" height="60" as="geometry" />
        </mxCell>
        <mxCell id="qExTj2zVySwOXJWGo6M_-171" value="Backend 2" style="rounded=0;whiteSpace=wrap;html=1;strokeColor=default;align=center;verticalAlign=middle;fontFamily=Helvetica;fontSize=12;fontColor=default;fillColor=default;" vertex="1" parent="1">
          <mxGeometry x="286" y="110" width="120" height="60" as="geometry" />
        </mxCell>
        <mxCell id="qExTj2zVySwOXJWGo6M_-172" value="" style="endArrow=classic;html=1;rounded=0;fontFamily=Helvetica;fontSize=12;fontColor=default;exitX=0.5;exitY=1;exitDx=0;exitDy=0;entryX=0.027;entryY=-0.05;entryDx=0;entryDy=0;entryPerimeter=0;" edge="1" parent="1" source="qExTj2zVySwOXJWGo6M_-170" target="qExTj2zVySwOXJWGo6M_-109">
          <mxGeometry width="50" height="50" relative="1" as="geometry">
            <mxPoint x="380" y="290" as="sourcePoint" />
            <mxPoint x="430" y="240" as="targetPoint" />
          </mxGeometry>
        </mxCell>
        <mxCell id="qExTj2zVySwOXJWGo6M_-173" value="" style="endArrow=classic;html=1;rounded=0;fontFamily=Helvetica;fontSize=12;fontColor=default;entryX=0.207;entryY=-0.012;entryDx=0;entryDy=0;entryPerimeter=0;exitX=0.5;exitY=1;exitDx=0;exitDy=0;" edge="1" parent="1" source="qExTj2zVySwOXJWGo6M_-171" target="qExTj2zVySwOXJWGo6M_-109">
          <mxGeometry width="50" height="50" relative="1" as="geometry">
            <mxPoint x="380" y="290" as="sourcePoint" />
            <mxPoint x="430" y="240" as="targetPoint" />
          </mxGeometry>
        </mxCell>
      </root>
    </mxGraphModel>
  </diagram>
</mxfile>
